<svg xmlns="http://www.w3.org/2000/svg" enable-background="new 0 0 24 24" height="24px" viewBox="0 0 24 24" width="24px" fill="#FFFFFF">
    <g>
        <rect fill="none" height="24" width="24" x="0" />
    </g>
    <g>
        <g>
            <path d="M 3 6.7 v 9.9 C 4.1 16.2 5.3 16 6.5 16 c 1.2 0 2.4 0.2 3.5 0.6 V 6.7 C 8.9 6.3 7.7 6 6.5 6 C 5.3 6 4.1 6.2 3 6.7 z" fill="#00ADB5" />
            <polygon points="19,0.5 14,5.5 14,15 19,10.5" />
            <path d="M 22.5 5.2 C 22 5 21.5 4.8 21 4.6 v 12 C 19.9 16.2 18.7 16 17.5 16 c -1.9 0 -3.8 0.5 -5.5 1.6 V 5.5 C 10.4 4.5 8.5 4 6.5 4 C 4.7 4 3 4.4 1.5 5.2 C 1.2 5.4 1 5.7 1 6.1 v 12.1 c 0 0.6 0.5 1 1 1 c 0.2 0 0.3 0 0.5 -0.1 C 3.7 18.4 5 18 6.5 18 c 2.1 0 4 0.8 5.5 2 c 1.5 -1.2 3.4 -2 5.5 -2 c 1.4 0 2.8 0.4 4 1 c 0.2 0.1 0.3 0.1 0.5 0.1 c 0.5 0 1 -0.4 1 -1 V 6.1 C 23 5.7 22.8 5.4 22.5 5.2 z M 10 16.6 C 8.9 16.2 7.7 16 6.5 16 c -1.2 0 -2.4 0.2 -3.5 0.6 V 6.7 C 4.1 6.2 5.3 6 6.5 6 C 7.7 6 8.9 6.3 10 6.7 V 16.6 z" />
        </g>
    </g>
</svg>