<svg xmlns="http://www.w3.org/2000/svg" height="24px" viewBox="0 0 24 24" width="24px" fill="#EEEEEE">
    <path d="M 0 0 h 24 v 24 H 0 V 0 z" fill="none" />
    <path d="M 19 13 v 5 c 0 0.6 -0.5 1 -1 1 H 6 c -0.6 0 -1 -0.5 -1 -1 v -5 c 0 -0.6 -0.5 -1 -1 -1 s -1 0.5 -1 1 v 6 c 0 1.1 0.9 2 2 2 h 14 c 1.1 0 2 -0.9 2 -2 v -6 c 0 -0.6 -0.5 -1 -1 -1 s -1 0.5 -1 1 z m -6 -0.3 l 1.9 -1.9 c 0.4 -0.4 1 -0.4 1.4 0 c 0.4 0.4 0.4 1 0 1.4 l -3.6 3.6 c -0.4 0.4 -1 0.4 -1.4 0 L 7.7 12.2 c -0.4 -0.4 -0.4 -1 0 -1.4 c 0.4 -0.4 1 -0.4 1.4 0 L 11 12.7 V 4 c 0 -0.6 0.5 -1 1 -1 s 1 0.5 1 1 v 8.7 z" />
</svg>