<svg xmlns="http://www.w3.org/2000/svg" height="24px" viewBox="0 0 24 24" width="24px" fill="#FFFFFF">
    <path d="M 0 0 h 24 v 24 H 0 V 0 z" fill="none" />
    <path d="M 11 6 H 21 V 21 H 12 z" fill="#00ADB5" />
    <path d="M 20 5 h -9.1 L 10 2 H 4 c -1.1 0 -2 0.9 -2 2 v 13 c 0 1.1 0.9 2 2 2 h 7 l 1 3 h 8 c 1.1 0 2 -0.9 2 -2 V 7 c 0 -1.1 -0.9 -2 -2 -2 z M 7.2 14.6 c -2.3 0 -4.1 -1.8 -4.1 -4.1 s 1.8 -4.1 4.1 -4.1 c 1 0 2 0.4 2.7 1.1 l 0.1 0.1 l -1.2 1.2 l -0.1 -0.1 c -0.3 -0.3 -0.8 -0.6 -1.5 -0.6 c -1.3 0 -2.4 1.1 -2.4 2.4 c 0 1.3 1.1 2.4 2.4 2.4 c 1.4 0 2 -0.9 2.1 -1.5 H 7.1 V 9.9 h 4 l 0 0.1 c 0 0.2 0.1 0.4 0.1 0.6 c 0 2.4 -1.6 4 -3.9 4 z m 5.5 -3.5 h 4 s -0.3 1.3 -1.6 2.7 c -0.5 -0.6 -0.9 -1.2 -1.1 -1.7 h -1 l -0.3 -1 z m 1.7 3.5 l -0.5 0.5 l -0.7 -2.2 c 0.3 0.6 0.7 1.2 1.2 1.7 z M 21 20 c 0 0.6 -0.5 1 -1 1 h -7 l 2 -2 l -0.8 -2.8 l 0.9 -0.9 L 17.8 18 l 0.7 -0.7 l -2.7 -2.7 c 0.9 -1 1.6 -2.3 1.9 -3.5 H 19 v -1 h -3.6 V 9 h -1 v 1 h -2 L 11.2 6 H 20 c 0.6 0 1 0.5 1 1 v 13 z" />
</svg>