<svg xmlns="http://www.w3.org/2000/svg" height="24px" viewBox="0 0 24 24" width="24px" fill="#FFFFFF">
    <path d="M 0 0 h 24 v 24 H 0 V 0 z" fill="none" />
    <path d="M 19 12 h -2 V 8 h -2 v 4 h -2 V 8 h -2 v 4 H 9 V 8 H 7 v 4 H 5 V 8 H 3 v 8 h 18 V 8 h -2 z" fill="#00ADB5" />
    <path d="M 21 6 H 3 c -1.1 0 -2 0.9 -2 2 v 8 c 0 1.1 0.9 2 2 2 h 18 c 1.1 0 2 -0.9 2 -2 V 8 c 0 -1.1 -0.9 -2 -2 -2 z m 0 10 H 3 V 8 h 2 v 4 h 2 V 8 h 2 v 4 h 2 V 8 h 2 v 4 h 2 V 8 h 2 v 4 h 2 V 8 h 2 v 8 z" />
</svg>