<svg xmlns="http://www.w3.org/2000/svg" enable-background="new 0 0 24 24" height="24px" viewBox="0 0 24 24" width="24px" fill="#FFFFFF">
    <g>
        <rect fill="none" height="24" width="24" />
    </g>
    <g>
        <g>
            <path d="M 21 11.5 l 1.5 1.5 l -7 7 L 11 15.5 l 1.5 -1.5 l 3 3 L 21 11.5 z" />
            <g>
                <polygon enable-background="new" fill="#00ADB5" points="17,5 17,8 7,8 7,5 5,5 5,19 11.7,19 8.2,15.5 12.5,11.2 15.5,14.2 19,10.7 19,5" />
                <path d="M 5 19 V 5 h 2 v 3 h 10 V 5 h 2 v 5.7 l 2 -2 l 0 0 V 5 c 0 -1.1 -0.9 -2 -2 -2 h -4.2 C 14.4 1.8 13.3 1 12 1 S 9.6 1.8 9.2 3 H 5 C 3.9 3 3 3.9 3 5 v 14 c 0 1.1 0.9 2 2 2 h 8.7 l -2 -2 H 5 z M 12 3 c 0.6 0 1 0.5 1 1 s -0.5 1 -1 1 s -1 -0.5 -1 -1 S 11.4 3 12 3 z" />
            </g>
        </g>
    </g>
</svg>