<svg xmlns="http://www.w3.org/2000/svg" enable-background="new 0 0 24 24" height="24px" viewBox="0 0 24 24" width="24px" fill="#FFFFFF">
    <g>
        <rect fill="none" height="24" width="24" />
    </g>
    <g>
        <g>
            <path d="M 12 6 c -3.9 0 -7 3.1 -7 7 s 3.1 7 7 7 s 7 -3.1 7 -7 S 15.9 6 12 6 z M 13 14 h -2 V 8 h 2 V 14 z" fill="#00ADB5" />
            <rect height="2" width="6" x="9" y="1" />
            <path d="M 19 7.4 l 1.4 -1.4 c -0.4 -0.5 -0.9 -1 -1.4 -1.4 l -1.4 1.4 C 16.1 4.7 14.1 4 12 4 c -5 0 -9 4 -9 9 c 0 5 4 9 9 9 s 9 -4 9 -9 C 21 10.9 20.3 8.9 19 7.4 z M 12 20 c -3.9 0 -7 -3.1 -7 -7 s 3.1 -7 7 -7 s 7 3.1 7 7 S 15.9 20 12 20 z" />
            <rect height="6" width="2" x="11" y="8" />
        </g>
    </g>
</svg>